<svg width="87" height="63" viewBox="0 0 87 63" fill="none" xmlns="http://www.w3.org/2000/svg">
<g clip-path="url(#clip0_26_66)">
<path d="M1.848 22.176C1.496 22.176 1.21 22.0953 0.99 21.934C0.784667 21.7727 0.66 21.56 0.616 21.296C0.572 21.0173 0.623333 20.7093 0.77 20.372L6.578 7.502C6.76867 7.07667 6.996 6.776 7.26 6.6C7.53867 6.40933 7.854 6.314 8.206 6.314C8.54333 6.314 8.844 6.40933 9.108 6.6C9.38667 6.776 9.62133 7.07667 9.812 7.502L15.642 20.372C15.8033 20.7093 15.862 21.0173 15.818 21.296C15.774 21.5747 15.6493 21.7947 15.444 21.956C15.2387 22.1027 14.9673 22.176 14.63 22.176C14.2193 22.176 13.8967 22.0807 13.662 21.89C13.442 21.6847 13.244 21.3767 13.068 20.966L11.638 17.644L12.826 18.414H3.542L4.73 17.644L3.322 20.966C3.13133 21.3913 2.93333 21.6993 2.728 21.89C2.52267 22.0807 2.22933 22.176 1.848 22.176ZM8.162 9.548L5.082 16.874L4.51 16.17H11.858L11.308 16.874L8.206 9.548H8.162ZM19.1651 26.136C18.7251 26.136 18.3878 26.0187 18.1531 25.784C17.9184 25.5493 17.8011 25.2047 17.8011 24.75V12.452C17.8011 11.9973 17.9184 11.6527 18.1531 11.418C18.3878 11.1833 18.7178 11.066 19.1431 11.066C19.5831 11.066 19.9204 11.1833 20.1551 11.418C20.3898 11.6527 20.5071 11.9973 20.5071 12.452V14.168L20.2651 13.508C20.4851 12.76 20.9324 12.1587 21.6071 11.704C22.2964 11.2493 23.0958 11.022 24.0051 11.022C24.9438 11.022 25.7651 11.2493 26.4691 11.704C27.1878 12.1587 27.7451 12.804 28.1411 13.64C28.5371 14.4613 28.7351 15.4513 28.7351 16.61C28.7351 17.754 28.5371 18.7513 28.1411 19.602C27.7451 20.438 27.1951 21.0833 26.4911 21.538C25.7871 21.9927 24.9584 22.22 24.0051 22.22C23.1104 22.22 22.3258 22 21.6511 21.56C20.9764 21.1053 20.5218 20.5187 20.2871 19.8H20.5511V24.75C20.5511 25.2047 20.4264 25.5493 20.1771 25.784C19.9424 26.0187 19.6051 26.136 19.1651 26.136ZM23.2351 20.13C23.7778 20.13 24.2544 19.998 24.6651 19.734C25.0758 19.47 25.3911 19.0813 25.6111 18.568C25.8458 18.04 25.9631 17.3873 25.9631 16.61C25.9631 15.4367 25.7138 14.564 25.2151 13.992C24.7164 13.4053 24.0564 13.112 23.2351 13.112C22.6924 13.112 22.2158 13.244 21.8051 13.508C21.3944 13.7573 21.0718 14.146 20.8371 14.674C20.6171 15.1873 20.5071 15.8327 20.5071 16.61C20.5071 17.7687 20.7564 18.6487 21.2551 19.25C21.7538 19.8367 22.4138 20.13 23.2351 20.13ZM36.2945 22.22C35.0772 22.22 34.0285 21.9927 33.1485 21.538C32.2685 21.0833 31.5865 20.438 31.1025 19.602C30.6332 18.766 30.3985 17.776 30.3985 16.632C30.3985 15.5173 30.6258 14.542 31.0805 13.706C31.5498 12.87 32.1878 12.2173 32.9945 11.748C33.8158 11.264 34.7472 11.022 35.7885 11.022C36.5512 11.022 37.2332 11.1467 37.8345 11.396C38.4505 11.6453 38.9712 12.0047 39.3965 12.474C39.8365 12.9433 40.1665 13.5153 40.3865 14.19C40.6212 14.85 40.7385 15.598 40.7385 16.434C40.7385 16.698 40.6432 16.9033 40.4525 17.05C40.2765 17.182 40.0198 17.248 39.6825 17.248H32.6205V15.664H38.8025L38.4505 15.994C38.4505 15.3193 38.3478 14.7547 38.1425 14.3C37.9518 13.8453 37.6658 13.5007 37.2845 13.266C36.9178 13.0167 36.4558 12.892 35.8985 12.892C35.2825 12.892 34.7545 13.0387 34.3145 13.332C33.8892 13.6107 33.5592 14.014 33.3245 14.542C33.1045 15.0553 32.9945 15.6713 32.9945 16.39V16.544C32.9945 17.7467 33.2732 18.6487 33.8305 19.25C34.4025 19.8367 35.2385 20.13 36.3385 20.13C36.7198 20.13 37.1452 20.086 37.6145 19.998C38.0985 19.8953 38.5532 19.7267 38.9785 19.492C39.2865 19.316 39.5578 19.2427 39.7925 19.272C40.0272 19.2867 40.2105 19.3673 40.3425 19.514C40.4892 19.6607 40.5772 19.844 40.6065 20.064C40.6358 20.2693 40.5918 20.482 40.4745 20.702C40.3718 20.922 40.1885 21.1127 39.9245 21.274C39.4112 21.5967 38.8172 21.8387 38.1425 22C37.4825 22.1467 36.8665 22.22 36.2945 22.22ZM43.5999 22.11C43.2772 22.11 43.0059 22.022 42.7859 21.846C42.5805 21.6553 42.4705 21.4133 42.4559 21.12C42.4559 20.8267 42.5805 20.5187 42.8299 20.196L46.3939 15.796V17.094L43.0499 12.98C42.7859 12.6573 42.6612 12.3493 42.6759 12.056C42.6905 11.7627 42.8005 11.528 43.0059 11.352C43.2259 11.1613 43.4972 11.066 43.8199 11.066C44.1572 11.066 44.4359 11.1247 44.6559 11.242C44.8905 11.3593 45.1032 11.5427 45.2939 11.792L47.9339 15.18H46.9659L49.6279 11.792C49.8332 11.5427 50.0459 11.3593 50.2659 11.242C50.4859 11.1247 50.7572 11.066 51.0799 11.066C51.4172 11.066 51.6885 11.1613 51.8939 11.352C52.0992 11.5427 52.2019 11.7847 52.2019 12.078C52.2165 12.3713 52.0919 12.6793 51.8279 13.002L48.5059 17.072V15.84L52.0699 20.196C52.3339 20.504 52.4585 20.8047 52.4439 21.098C52.4292 21.3913 52.3119 21.6333 52.0919 21.824C51.8865 22.0147 51.6152 22.11 51.2779 22.11C50.9552 22.11 50.6839 22.0513 50.4639 21.934C50.2439 21.8167 50.0312 21.6333 49.8259 21.384L46.9659 17.776H47.8899L45.0519 21.384C44.8612 21.6187 44.6559 21.802 44.4359 21.934C44.2159 22.0513 43.9372 22.11 43.5999 22.11Z" fill="#FF9D1C"/>
<path d="M7.19 39C6.706 39 6.332 38.8753 6.068 38.626C5.81867 38.362 5.694 37.988 5.694 37.504V24.986C5.694 24.502 5.81867 24.1353 6.068 23.886C6.332 23.622 6.706 23.49 7.19 23.49H11.458C14.054 23.49 16.056 24.1573 17.464 25.492C18.8867 26.8267 19.598 28.7407 19.598 31.234C19.598 32.4807 19.4147 33.588 19.048 34.556C18.696 35.5093 18.168 36.316 17.464 36.976C16.7747 37.636 15.924 38.142 14.912 38.494C13.9147 38.8313 12.7633 39 11.458 39H7.19ZM8.51 36.668H11.282C12.1913 36.668 12.976 36.558 13.636 36.338C14.3107 36.1033 14.868 35.766 15.308 35.326C15.7627 34.8713 16.1 34.3067 16.32 33.632C16.54 32.9427 16.65 32.1433 16.65 31.234C16.65 29.4153 16.2027 28.0587 15.308 27.164C14.4133 26.2693 13.0713 25.822 11.282 25.822H8.51V36.668ZM23.5518 39.154C23.1118 39.154 22.7745 39.022 22.5398 38.758C22.3051 38.494 22.1878 38.1273 22.1878 37.658V29.584C22.1878 29.1 22.3051 28.7333 22.5398 28.484C22.7745 28.22 23.1118 28.088 23.5518 28.088C23.9918 28.088 24.3291 28.22 24.5638 28.484C24.8131 28.7333 24.9378 29.1 24.9378 29.584V37.658C24.9378 38.1273 24.8205 38.494 24.5858 38.758C24.3511 39.022 24.0065 39.154 23.5518 39.154ZM23.5518 26.042C23.0385 26.042 22.6351 25.9173 22.3418 25.668C22.0631 25.404 21.9238 25.0447 21.9238 24.59C21.9238 24.1207 22.0631 23.7613 22.3418 23.512C22.6351 23.2627 23.0385 23.138 23.5518 23.138C24.0798 23.138 24.4831 23.2627 24.7618 23.512C25.0405 23.7613 25.1798 24.1207 25.1798 24.59C25.1798 25.0447 25.0405 25.404 24.7618 25.668C24.4831 25.9173 24.0798 26.042 23.5518 26.042ZM32.8112 43.18C32.0192 43.18 31.2492 43.1067 30.5012 42.96C29.7679 42.8133 29.1006 42.586 28.4992 42.278C28.2206 42.1313 28.0299 41.9553 27.9272 41.75C27.8392 41.5447 27.8099 41.332 27.8392 41.112C27.8832 40.9067 27.9712 40.7233 28.1032 40.562C28.2499 40.4007 28.4259 40.2907 28.6312 40.232C28.8366 40.1733 29.0492 40.2027 29.2692 40.32C29.9146 40.6427 30.5232 40.848 31.0952 40.936C31.6819 41.0387 32.1806 41.09 32.5912 41.09C33.5739 41.09 34.3072 40.848 34.7912 40.364C35.2899 39.8947 35.5392 39.1907 35.5392 38.252V36.272H35.7372C35.5172 37.02 35.0552 37.6213 34.3512 38.076C33.6619 38.516 32.8772 38.736 31.9972 38.736C31.0292 38.736 30.1859 38.516 29.4672 38.076C28.7486 37.6213 28.1912 36.9907 27.7952 36.184C27.3992 35.3773 27.2012 34.4387 27.2012 33.368C27.2012 32.5613 27.3112 31.8353 27.5312 31.19C27.7659 30.53 28.0886 29.9653 28.4992 29.496C28.9246 29.0267 29.4306 28.6673 30.0172 28.418C30.6186 28.154 31.2786 28.022 31.9972 28.022C32.9066 28.022 33.6986 28.2493 34.3732 28.704C35.0626 29.144 35.5099 29.7307 35.7152 30.464L35.4952 31.014V29.452C35.4952 28.9973 35.6126 28.6527 35.8472 28.418C36.0966 28.1833 36.4339 28.066 36.8592 28.066C37.2992 28.066 37.6366 28.1833 37.8712 28.418C38.1059 28.6527 38.2232 28.9973 38.2232 29.452V37.922C38.2232 39.6673 37.7612 40.98 36.8372 41.86C35.9132 42.74 34.5712 43.18 32.8112 43.18ZM32.7452 36.646C33.3172 36.646 33.8086 36.514 34.2192 36.25C34.6299 35.986 34.9452 35.612 35.1652 35.128C35.3999 34.6293 35.5172 34.0427 35.5172 33.368C35.5172 32.356 35.2679 31.564 34.7692 30.992C34.2706 30.4053 33.5959 30.112 32.7452 30.112C32.1732 30.112 31.6819 30.244 31.2712 30.508C30.8606 30.772 30.5379 31.146 30.3032 31.63C30.0832 32.114 29.9732 32.6933 29.9732 33.368C29.9732 34.38 30.2226 35.1793 30.7212 35.766C31.2199 36.3527 31.8946 36.646 32.7452 36.646ZM42.4366 39.154C41.9966 39.154 41.6592 39.022 41.4246 38.758C41.1899 38.494 41.0726 38.1273 41.0726 37.658V29.584C41.0726 29.1 41.1899 28.7333 41.4246 28.484C41.6592 28.22 41.9966 28.088 42.4366 28.088C42.8766 28.088 43.2139 28.22 43.4486 28.484C43.6979 28.7333 43.8226 29.1 43.8226 29.584V37.658C43.8226 38.1273 43.7052 38.494 43.4706 38.758C43.2359 39.022 42.8912 39.154 42.4366 39.154ZM42.4366 26.042C41.9232 26.042 41.5199 25.9173 41.2266 25.668C40.9479 25.404 40.8086 25.0447 40.8086 24.59C40.8086 24.1207 40.9479 23.7613 41.2266 23.512C41.5199 23.2627 41.9232 23.138 42.4366 23.138C42.9646 23.138 43.3679 23.2627 43.6466 23.512C43.9252 23.7613 44.0646 24.1207 44.0646 24.59C44.0646 25.0447 43.9252 25.404 43.6466 25.668C43.3679 25.9173 42.9646 26.042 42.4366 26.042ZM51.608 39.22C50.6547 39.22 49.8553 39.0587 49.21 38.736C48.5793 38.4133 48.11 37.944 47.802 37.328C47.494 36.6973 47.34 35.92 47.34 34.996V30.31H46.196C45.844 30.31 45.5727 30.222 45.382 30.046C45.1913 29.8553 45.096 29.5987 45.096 29.276C45.096 28.9387 45.1913 28.682 45.382 28.506C45.5727 28.33 45.844 28.242 46.196 28.242H47.34V26.24C47.34 25.7853 47.4573 25.4407 47.692 25.206C47.9413 24.9713 48.286 24.854 48.726 24.854C49.166 24.854 49.5033 24.9713 49.738 25.206C49.9727 25.4407 50.09 25.7853 50.09 26.24V28.242H52.422C52.774 28.242 53.0453 28.33 53.236 28.506C53.4267 28.682 53.522 28.9387 53.522 29.276C53.522 29.5987 53.4267 29.8553 53.236 30.046C53.0453 30.222 52.774 30.31 52.422 30.31H50.09V34.842C50.09 35.546 50.244 36.074 50.552 36.426C50.86 36.778 51.3587 36.954 52.048 36.954C52.2973 36.954 52.5173 36.932 52.708 36.888C52.8987 36.844 53.0673 36.8147 53.214 36.8C53.39 36.7853 53.5367 36.844 53.654 36.976C53.7713 37.0933 53.83 37.3427 53.83 37.724C53.83 38.0173 53.7787 38.2813 53.676 38.516C53.588 38.736 53.4193 38.89 53.17 38.978C52.9793 39.0367 52.73 39.088 52.422 39.132C52.114 39.1907 51.8427 39.22 51.608 39.22ZM58.6654 39.22C57.888 39.22 57.1914 39.0733 56.5754 38.78C55.974 38.472 55.4974 38.0613 55.1454 37.548C54.808 37.0347 54.6394 36.4553 54.6394 35.81C54.6394 35.018 54.8447 34.3947 55.2554 33.94C55.666 33.4707 56.3334 33.1333 57.2574 32.928C58.1814 32.7227 59.4207 32.62 60.9754 32.62H62.0754V34.204H60.9974C60.088 34.204 59.362 34.248 58.8194 34.336C58.2767 34.424 57.888 34.578 57.6534 34.798C57.4334 35.0033 57.3234 35.2967 57.3234 35.678C57.3234 36.162 57.492 36.558 57.8294 36.866C58.1667 37.174 58.636 37.328 59.2374 37.328C59.7214 37.328 60.1467 37.218 60.5134 36.998C60.8947 36.7633 61.1954 36.448 61.4154 36.052C61.6354 35.656 61.7454 35.2013 61.7454 34.688V32.158C61.7454 31.4247 61.584 30.8967 61.2614 30.574C60.9387 30.2513 60.396 30.09 59.6334 30.09C59.208 30.09 58.746 30.1413 58.2474 30.244C57.7634 30.3467 57.25 30.5227 56.7074 30.772C56.4287 30.904 56.1794 30.9407 55.9594 30.882C55.754 30.8233 55.5927 30.706 55.4754 30.53C55.358 30.3393 55.2994 30.134 55.2994 29.914C55.2994 29.694 55.358 29.4813 55.4754 29.276C55.5927 29.056 55.7907 28.8947 56.0694 28.792C56.744 28.5133 57.3894 28.3153 58.0054 28.198C58.636 28.0807 59.208 28.022 59.7214 28.022C60.7774 28.022 61.6427 28.1833 62.3174 28.506C63.0067 28.8287 63.52 29.32 63.8574 29.98C64.1947 30.6253 64.3634 31.4613 64.3634 32.488V37.768C64.3634 38.2227 64.2534 38.5747 64.0334 38.824C63.8134 39.0587 63.498 39.176 63.0874 39.176C62.6767 39.176 62.354 39.0587 62.1194 38.824C61.8994 38.5747 61.7894 38.2227 61.7894 37.768V36.712H61.9654C61.8627 37.2253 61.6574 37.6727 61.3494 38.054C61.056 38.4207 60.682 38.7067 60.2274 38.912C59.7727 39.1173 59.252 39.22 58.6654 39.22ZM70.8286 39.22C69.6113 39.22 68.6946 38.8753 68.0786 38.186C67.4626 37.482 67.1546 36.4553 67.1546 35.106V24.7C67.1546 24.2453 67.2719 23.9007 67.5066 23.666C67.7413 23.4313 68.0786 23.314 68.5186 23.314C68.9586 23.314 69.2959 23.4313 69.5306 23.666C69.7799 23.9007 69.9046 24.2453 69.9046 24.7V34.974C69.9046 35.6487 70.0439 36.1473 70.3226 36.47C70.6159 36.7927 71.0266 36.954 71.5546 36.954C71.6719 36.954 71.7819 36.954 71.8846 36.954C71.9873 36.9393 72.0899 36.9247 72.1926 36.91C72.3979 36.8807 72.5373 36.9393 72.6106 37.086C72.6839 37.218 72.7206 37.4967 72.7206 37.922C72.7206 38.2887 72.6473 38.5747 72.5006 38.78C72.3539 38.9853 72.1119 39.11 71.7746 39.154C71.6279 39.1687 71.4739 39.1833 71.3126 39.198C71.1513 39.2127 70.9899 39.22 70.8286 39.22Z" fill="#FF9D1C"/>
<path d="M11.848 55.176C11.496 55.176 11.21 55.0953 10.99 54.934C10.7847 54.7727 10.66 54.56 10.616 54.296C10.572 54.0173 10.6233 53.7093 10.77 53.372L16.578 40.502C16.7687 40.0767 16.996 39.776 17.26 39.6C17.5387 39.4093 17.854 39.314 18.206 39.314C18.5433 39.314 18.844 39.4093 19.108 39.6C19.3867 39.776 19.6213 40.0767 19.812 40.502L25.642 53.372C25.8033 53.7093 25.862 54.0173 25.818 54.296C25.774 54.5747 25.6493 54.7947 25.444 54.956C25.2387 55.1027 24.9673 55.176 24.63 55.176C24.2193 55.176 23.8967 55.0807 23.662 54.89C23.442 54.6847 23.244 54.3767 23.068 53.966L21.638 50.644L22.826 51.414H13.542L14.73 50.644L13.322 53.966C13.1313 54.3913 12.9333 54.6993 12.728 54.89C12.5227 55.0807 12.2293 55.176 11.848 55.176ZM18.162 42.548L15.082 49.874L14.51 49.17H21.858L21.308 49.874L18.206 42.548H18.162ZM32.7097 59.18C31.9177 59.18 31.1477 59.1067 30.3997 58.96C29.6663 58.8133 28.999 58.586 28.3977 58.278C28.119 58.1313 27.9283 57.9553 27.8257 57.75C27.7377 57.5447 27.7083 57.332 27.7377 57.112C27.7817 56.9067 27.8697 56.7233 28.0017 56.562C28.1483 56.4007 28.3243 56.2907 28.5297 56.232C28.735 56.1733 28.9477 56.2027 29.1677 56.32C29.813 56.6427 30.4217 56.848 30.9937 56.936C31.5803 57.0387 32.079 57.09 32.4897 57.09C33.4723 57.09 34.2057 56.848 34.6897 56.364C35.1883 55.8947 35.4377 55.1907 35.4377 54.252V52.272H35.6357C35.4157 53.02 34.9537 53.6213 34.2497 54.076C33.5603 54.516 32.7757 54.736 31.8957 54.736C30.9277 54.736 30.0843 54.516 29.3657 54.076C28.647 53.6213 28.0897 52.9907 27.6937 52.184C27.2977 51.3773 27.0997 50.4387 27.0997 49.368C27.0997 48.5613 27.2097 47.8353 27.4297 47.19C27.6643 46.53 27.987 45.9653 28.3977 45.496C28.823 45.0267 29.329 44.6673 29.9157 44.418C30.517 44.154 31.177 44.022 31.8957 44.022C32.805 44.022 33.597 44.2493 34.2717 44.704C34.961 45.144 35.4083 45.7307 35.6137 46.464L35.3937 47.014V45.452C35.3937 44.9973 35.511 44.6527 35.7457 44.418C35.995 44.1833 36.3323 44.066 36.7577 44.066C37.1977 44.066 37.535 44.1833 37.7697 44.418C38.0043 44.6527 38.1217 44.9973 38.1217 45.452V53.922C38.1217 55.6673 37.6597 56.98 36.7357 57.86C35.8117 58.74 34.4697 59.18 32.7097 59.18ZM32.6437 52.646C33.2157 52.646 33.707 52.514 34.1177 52.25C34.5283 51.986 34.8437 51.612 35.0637 51.128C35.2983 50.6293 35.4157 50.0427 35.4157 49.368C35.4157 48.356 35.1663 47.564 34.6677 46.992C34.169 46.4053 33.4943 46.112 32.6437 46.112C32.0717 46.112 31.5803 46.244 31.1697 46.508C30.759 46.772 30.4363 47.146 30.2017 47.63C29.9817 48.114 29.8717 48.6933 29.8717 49.368C29.8717 50.38 30.121 51.1793 30.6197 51.766C31.1183 52.3527 31.793 52.646 32.6437 52.646ZM46.273 55.22C45.0557 55.22 44.007 54.9927 43.127 54.538C42.247 54.0833 41.565 53.438 41.081 52.602C40.6117 51.766 40.377 50.776 40.377 49.632C40.377 48.5173 40.6043 47.542 41.059 46.706C41.5283 45.87 42.1663 45.2173 42.973 44.748C43.7943 44.264 44.7257 44.022 45.767 44.022C46.5297 44.022 47.2117 44.1467 47.813 44.396C48.429 44.6453 48.9497 45.0047 49.375 45.474C49.815 45.9433 50.145 46.5153 50.365 47.19C50.5997 47.85 50.717 48.598 50.717 49.434C50.717 49.698 50.6217 49.9033 50.431 50.05C50.255 50.182 49.9983 50.248 49.661 50.248H42.599V48.664H48.781L48.429 48.994C48.429 48.3193 48.3263 47.7547 48.121 47.3C47.9303 46.8453 47.6443 46.5007 47.263 46.266C46.8963 46.0167 46.4343 45.892 45.877 45.892C45.261 45.892 44.733 46.0387 44.293 46.332C43.8677 46.6107 43.5377 47.014 43.303 47.542C43.083 48.0553 42.973 48.6713 42.973 49.39V49.544C42.973 50.7467 43.2517 51.6487 43.809 52.25C44.381 52.8367 45.217 53.13 46.317 53.13C46.6983 53.13 47.1237 53.086 47.593 52.998C48.077 52.8953 48.5317 52.7267 48.957 52.492C49.265 52.316 49.5363 52.2427 49.771 52.272C50.0057 52.2867 50.189 52.3673 50.321 52.514C50.4677 52.6607 50.5557 52.844 50.585 53.064C50.6143 53.2693 50.5703 53.482 50.453 53.702C50.3503 53.922 50.167 54.1127 49.903 54.274C49.3897 54.5967 48.7957 54.8387 48.121 55C47.461 55.1467 46.845 55.22 46.273 55.22ZM54.2588 55.176C53.8188 55.176 53.4815 55.0587 53.2468 54.824C53.0122 54.5747 52.8948 54.2227 52.8948 53.768V45.452C52.8948 44.9973 53.0122 44.6527 53.2468 44.418C53.4815 44.1833 53.8115 44.066 54.2368 44.066C54.6622 44.066 54.9922 44.1833 55.2268 44.418C55.4615 44.6527 55.5788 44.9973 55.5788 45.452V46.948L55.3368 46.398C55.6595 45.6207 56.1582 45.034 56.8328 44.638C57.5222 44.2273 58.2995 44.022 59.1648 44.022C60.0302 44.022 60.7415 44.1833 61.2988 44.506C61.8562 44.8287 62.2742 45.32 62.5528 45.98C62.8315 46.6253 62.9708 47.4467 62.9708 48.444V53.768C62.9708 54.2227 62.8535 54.5747 62.6188 54.824C62.3842 55.0587 62.0468 55.176 61.6068 55.176C61.1668 55.176 60.8222 55.0587 60.5728 54.824C60.3382 54.5747 60.2208 54.2227 60.2208 53.768V48.576C60.2208 47.74 60.0595 47.1313 59.7368 46.75C59.4288 46.3687 58.9448 46.178 58.2848 46.178C57.4782 46.178 56.8328 46.4347 56.3488 46.948C55.8795 47.4467 55.6448 48.114 55.6448 48.95V53.768C55.6448 54.7067 55.1828 55.176 54.2588 55.176ZM70.736 55.22C69.6067 55.22 68.624 54.9927 67.788 54.538C66.952 54.0687 66.3067 53.4087 65.852 52.558C65.3973 51.7073 65.17 50.71 65.17 49.566C65.17 48.7007 65.2947 47.9307 65.544 47.256C65.808 46.5667 66.182 45.9873 66.666 45.518C67.15 45.034 67.7367 44.6673 68.426 44.418C69.1153 44.154 69.8853 44.022 70.736 44.022C71.22 44.022 71.7407 44.088 72.298 44.22C72.87 44.352 73.4053 44.572 73.904 44.88C74.1387 45.0267 74.2927 45.2027 74.366 45.408C74.4393 45.6133 74.454 45.826 74.41 46.046C74.366 46.2513 74.2707 46.4347 74.124 46.596C73.992 46.7427 73.8233 46.838 73.618 46.882C73.4127 46.9113 73.1853 46.86 72.936 46.728C72.6133 46.5373 72.2833 46.398 71.946 46.31C71.6087 46.2073 71.286 46.156 70.978 46.156C70.494 46.156 70.0687 46.2367 69.702 46.398C69.3353 46.5447 69.02 46.7647 68.756 47.058C68.5067 47.3367 68.316 47.6887 68.184 48.114C68.052 48.5393 67.986 49.0307 67.986 49.588C67.986 50.6733 68.2427 51.5313 68.756 52.162C69.284 52.778 70.0247 53.086 70.978 53.086C71.286 53.086 71.6013 53.042 71.924 52.954C72.2613 52.866 72.5987 52.7267 72.936 52.536C73.1853 52.404 73.4053 52.36 73.596 52.404C73.8013 52.448 73.97 52.5507 74.102 52.712C74.234 52.8587 74.3147 53.042 74.344 53.262C74.3733 53.4673 74.344 53.6727 74.256 53.878C74.1827 54.0833 74.036 54.252 73.816 54.384C73.332 54.6773 72.8187 54.89 72.276 55.022C71.7333 55.154 71.22 55.22 70.736 55.22ZM79.0408 59.136C78.7181 59.136 78.4541 59.048 78.2488 58.872C78.0435 58.7107 77.9188 58.4907 77.8748 58.212C77.8455 57.9333 77.8968 57.64 78.0288 57.332L79.5248 54.01V55.154L75.5208 45.892C75.3888 45.5693 75.3448 45.2687 75.3888 44.99C75.4328 44.7113 75.5648 44.4913 75.7848 44.33C76.0195 44.154 76.3348 44.066 76.7308 44.066C77.0681 44.066 77.3395 44.1467 77.5448 44.308C77.7501 44.4547 77.9335 44.7407 78.0948 45.166L81.0648 52.58H80.4048L83.4408 45.144C83.6021 44.7333 83.7928 44.4547 84.0128 44.308C84.2328 44.1467 84.5261 44.066 84.8928 44.066C85.2155 44.066 85.4721 44.154 85.6628 44.33C85.8535 44.4913 85.9708 44.7113 86.0148 44.99C86.0588 45.254 86.0075 45.5473 85.8608 45.87L80.5148 58.08C80.3241 58.4907 80.1188 58.7693 79.8988 58.916C79.6788 59.0627 79.3928 59.136 79.0408 59.136Z" fill="#FF9D1C"/>
</g>
<defs>
<clipPath id="clip0_26_66">
<rect width="87" height="63" fill="white"/>
</clipPath>
</defs>
</svg>
