<svg width="51" height="50" viewBox="0 0 51 50" fill="none" xmlns="http://www.w3.org/2000/svg">
<g id="shape-8" clip-path="url(#clip0_26_90)">
<path id="Vector" d="M46.1601 20.6601H35.9768L43.1773 13.4597C44.8719 11.765 44.8719 9.01742 43.1773 7.32274C41.4826 5.62806 38.735 5.62806 37.0403 7.32274L29.8399 14.5232V4.33985C29.8399 1.94377 27.8976 0 25.5 0C23.1039 0 21.1601 1.94224 21.1601 4.33985V14.5232L13.9597 7.32274C12.265 5.62806 9.51742 5.62806 7.82274 7.32274C6.12806 9.01742 6.12806 11.765 7.82274 13.4597L15.0232 20.6601H4.83985C2.44377 20.6601 0.5 22.6024 0.5 25C0.5 27.3976 2.44224 29.3399 4.83985 29.3399H15.0232L7.82274 36.5403C6.12806 38.235 6.12806 40.9826 7.82274 42.6773C9.51742 44.3719 12.265 44.3719 13.9597 42.6773L21.1601 35.4768V45.6601C21.1601 48.0562 23.1024 50 25.5 50C27.8961 50 29.8399 48.0578 29.8399 45.6601V35.4768L37.0403 42.6773C38.735 44.3719 41.4826 44.3719 43.1773 42.6773C44.8719 40.9826 44.8719 38.235 43.1773 36.5403L35.9768 29.3399H46.1601C48.5562 29.3399 50.5 27.3976 50.5 25C50.5 22.6039 48.5578 20.6601 46.1601 20.6601Z" fill="#FF9D1C"/>
</g>
<defs>
<clipPath id="clip0_26_90">
<rect width="50" height="50" fill="white" transform="translate(0.5)"/>
</clipPath>
</defs>
</svg>
